# 3ds Max Wavefront OBJ Exporter v0.97b - (c)2007 guruware
# File Created: 24.03.2011 06:10:26

#
# object Mesh1_Model2
#

v  10665.804688 -45997.585938 29416.910156
v  -8802.811523 -47375.781250 -10257.181641
v  -8750.743164 -47903.781250 -20511.580078
v  -8683.937500 -45979.835938 -18376.066406
v  10566.470703 -44170.566406 29553.238281
v  -9735.841797 -46465.144531 -28524.447266
v  -4245.435547 -48893.144531 -36818.289063
v  -1094.898071 -49025.773438 -37329.957031
v  -5663.899414 -43455.812500 32790.054688
v  -8251.417969 -43525.843750 29721.494141
v  -5287.291016 -45254.609375 33384.968750
v  -10120.155273 -45418.574219 27007.492188
v  -12644.445313 -46392.542969 6368.467285
v  -10485.444336 -46832.660156 -784.654724
v  -7914.792480 -46809.195313 -34028.472656
v  -5428.332520 -47009.472656 -36293.074219
v  5716.203125 -47267.738281 -33985.308594
v  7266.640625 -47166.644531 -30994.558594
v  -13371.144531 -44067.558594 15795.123047
v  -13385.367188 -44297.664063 11302.392578
v  -13409.073242 -44117.457031 14796.671875
v  -13114.761719 -44434.074219 8822.837891
v  -13442.147461 -46120.667969 11141.515625
v  -8782.060547 -43551.207031 28877.843750
v  5103.914551 -45524.562500 34968.859375
v  8608.420898 -45759.832031 32694.287109
v  5479.234863 -43738.039063 34630.062500
v  -3337.038330 -47124.148438 -37151.359375
v  -1093.942871 -47214.808594 -37439.199219
v  -9473.541992 -46603.550781 -31048.355469
v  -8604.682617 -46739.960938 -33133.949219
v  -9831.743164 -48338.683594 -29697.011719
v  -8669.186523 -45959.925781 -17978.453125
v  7277.638184 -47162.664063 -30909.759766
v  10596.025391 -44191.453125 29164.404297
v  7377.946289 -48961.957031 -30505.158203
v  -5480.802734 -43452.910156 32967.234375
v  528.945374 -43525.496094 35509.648438
v  -2749.185059 -43456.144531 34703.167969
v  -1582.031006 -45281.597656 35300.671875
v  9396.644531 -44032.058594 31481.451172
v  7433.545898 -43862.027344 33501.375000
v  -11002.390625 -44917.003906 804.848206
v  -8707.047852 -45713.285156 -13197.929688
v  3236.842285 -47300.882813 -36265.218750
v  5029.627441 -47290.625000 -34883.425781
v  2434.497314 -49109.621094 -36639.238281
v  -2215.627197 -47169.511719 -37295.281250
v  2192.202148 -47288.015625 -36701.246094
v  1938.739258 -43573.054688 35512.769531
v  -1417.303223 -43477.378906 35167.937500
v  -12654.005859 -44571.519531 6448.440430
v  -9851.199219 -45208.433594 -4116.362305
v  -11517.863281 -43732.113281 23551.320313
v  -12944.116211 -43929.558594 18763.759766
v  -13114.193359 -45753.003906 18521.005859
v  -7898.894531 -48633.468750 -34166.218750
v  -9882.821289 -45186.898438 -3716.331543
v  -9111.919922 -45455.164063 -8435.449219
v  5949.592773 -49082.554688 -33795.515625
v  1790.355835 -45375.203125 35697.882813
v  2785.567627 -43604.488281 35458.070313
v  -10513.345703 -43649.085938 25830.664063
v  -12576.762695 -43867.417969 20216.509766
v  -7224.958008 -46878.347656 -34922.777344
v  -8750.849609 -45685.437500 -12684.189453
v  6404.003906 -47244.746094 -33085.675781
v  5218.839355 -43723.601563 34739.824219
v  -3775.599609 -43445.976563 34225.328125
v  -8988.995117 -46189.089844 -22655.306641
v  -9772.053711 -46478.488281 -28808.248047
v  1148.552124 -47275.097656 -37136.906250
v  7558.433594 -47061.437500 -28752.566406
v  9221.144531 -44014.703125 31702.697266
# 74 vertices

vn -0.033742 -0.998117 0.051229
vn -0.033730 -0.998117 0.051224
vn -0.033741 -0.998117 0.051228
vn 0.033739 0.998117 -0.051228
vn 0.033731 0.998117 -0.051234
vn -0.033722 -0.998118 0.051226
vn -0.033716 -0.998118 0.051223
vn -0.033743 -0.998117 0.051226
vn -0.033743 -0.998116 0.051236
vn -0.033737 -0.998117 0.051224
vn -0.033747 -0.998116 0.051232
vn 0.033741 0.998117 -0.051233
vn -0.991628 0.116811 -0.055046
vn -0.796096 -0.034684 0.604175
vn 0.545973 0.043961 0.836649
vn -0.131082 -0.118015 -0.984322
vn -0.920536 -0.103368 -0.376734
vn -0.998617 0.051995 -0.007748
vn -0.162455 -0.059329 -0.984931
vn 0.997447 0.042742 -0.057211
vn -0.777344 0.061661 0.626047
vn -0.232316 0.165199 0.958509
vn 0.997944 0.030688 -0.056274
vn 0.715111 0.152603 0.682149
vn -0.957493 -0.019590 -0.287791
vn -0.999153 0.039913 -0.009973
vn 0.607370 -0.106638 -0.787230
vn 0.033724 0.998116 -0.051250
vn 0.033746 0.998118 -0.051202
vn 0.033735 0.998117 -0.051225
vn 0.033747 0.998116 -0.051232
vn -0.957679 0.051627 0.283171
vn -0.033740 -0.998117 0.051231
vn -0.033732 -0.998118 0.051220
vn -0.996346 -0.070777 0.047805
vn -0.033758 -0.998116 0.051234
vn -0.033755 -0.998116 0.051233
vn -0.913172 -0.129741 -0.386372
vn -0.986956 -0.006255 -0.160870
vn 0.622823 -0.146797 -0.768467
vn -0.033744 -0.998117 0.051228
vn -0.033756 -0.998116 0.051230
vn -0.116352 0.021699 0.992971
vn -0.033734 -0.998117 0.051234
vn -0.033745 -0.998117 0.051214
vn 0.297103 0.117288 0.947614
vn 0.033737 0.998117 -0.051220
vn 0.033745 0.998116 -0.051237
vn -0.607912 -0.105784 -0.786926
vn 0.033741 0.998117 -0.051229
vn 0.925635 -0.086587 -0.368378
vn -0.937911 -0.091786 0.334513
vn 0.033742 0.998117 -0.051219
vn -0.991405 -0.029125 0.127542
vn -0.961355 0.093605 -0.258911
vn -0.993159 0.007675 0.116518
vn -0.876944 0.183498 0.444183
vn -0.587873 -0.147385 -0.795414
vn 0.846473 -0.012524 0.532285
vn -0.033770 -0.998117 0.051209
vn -0.033714 -0.998116 0.051264
vn 0.886569 0.097474 0.452211
vn 0.131777 -0.059758 -0.989476
vn -0.531196 0.136807 0.836131
vn -0.983176 0.044372 -0.177189
vn -0.459284 -0.002905 0.888285
vn -0.033739 -0.998117 0.051228
vn 0.917141 -0.038083 -0.396739
vn 0.187324 -0.132725 -0.973290
vn 0.215340 0.011212 0.976475
vn -0.990637 0.077430 0.112439
vn 0.496282 -0.061060 0.866011
vn 0.026860 0.119315 0.992493
vn -0.986096 -0.032600 -0.162946
vn 0.033556 0.998116 -0.051373
vn -0.969494 -0.065675 -0.236153
vn -0.996243 -0.050181 0.070584
vn -0.985841 0.096987 -0.136786
vn -0.378649 0.020222 -0.925319
vn -0.789743 0.039365 -0.612174
vn 0.793375 0.038481 -0.607515
vn 0.385338 0.019838 -0.922562
vn -0.993251 -0.084088 -0.079882
# 83 vertex normals

g Mesh1_Model2
s 1
f 1//1 2//2 3//3 
f 4//4 5//5 6//4 
f 1//1 7//6 8//7 
f 9//4 5//5 10//4 
f 1//1 11//8 12//9 
f 1//1 13//10 14//11 
f 15//4 5//5 16//4 
f 17//4 5//5 18//4 
f 19//12 5//5 20//4 
s off
f 21//13 22//13 23//13 
f 12//14 11//14 24//14 
f 25//15 26//15 27//15 
f 28//16 29//16 7//16 
f 30//17 31//17 32//17 
f 3//18 2//18 33//18 
f 8//19 7//19 29//19 
f 34//20 35//20 36//20 
f 37//21 24//21 11//21 
f 38//22 39//22 40//22 
f 1//23 36//23 35//23 
f 41//24 42//24 26//24 
f 14//25 13//25 43//25 
f 44//26 33//26 2//26 
f 45//27 46//27 47//27 
s 1
f 48//4 5//5 49//4 
f 50//28 5//5 51//29 
f 52//30 5//5 53//31 
s off
f 54//32 55//32 56//32 
s 1
f 1//1 56//33 23//34 
s off
f 23//35 56//35 21//35 
s 1
f 1//1 32//36 57//37 
s off
f 57//38 32//38 31//38 
f 58//39 59//39 2//39 
f 60//40 47//40 46//40 
s 1
f 1//1 47//41 60//42 
s off
f 40//43 61//43 38//43 
s 1
f 1//1 61//44 40//45 
s off
f 27//46 62//46 25//46 
s 1
f 30//4 5//5 15//4 
f 63//47 5//5 64//48 
s off
f 65//49 16//49 57//49 
s 1
f 53//31 5//5 66//50 
f 49//4 5//5 17//4 
s off
f 67//51 34//51 60//51 
s 1
f 42//5 5//5 68//4 
f 1//1 12//9 56//33 
s off
f 56//52 12//52 54//52 
s 1
f 51//29 5//5 69//53 
s off
f 70//54 71//54 32//54 
f 22//55 43//55 13//55 
s 1
f 1//1 3//3 32//36 
s off
f 32//56 3//56 70//56 
f 24//57 54//57 12//57 
s 1
f 1//1 57//37 7//6 
s off
f 7//58 57//58 16//58 
f 26//59 1//59 41//59 
s 1
f 1//1 26//60 25//61 
s off
f 35//62 41//62 1//62 
f 29//63 72//63 8//63 
f 39//64 37//64 11//64 
s 1
f 68//4 5//5 50//28 
s off
f 2//65 14//65 58//65 
s 1
f 1//1 14//11 2//2 
f 16//4 5//5 48//4 
s off
f 11//66 40//66 39//66 
s 1
f 1//1 40//45 11//8 
f 20//4 5//5 52//30 
f 1//1 60//42 36//67 
s off
f 36//68 60//68 34//68 
f 47//69 8//69 72//69 
s 1
f 1//1 8//7 47//41 
f 1//1 25//61 61//44 
s off
f 61//70 25//70 62//70 
f 55//71 21//71 56//71 
s 1
f 6//4 5//5 30//4 
f 66//50 5//5 4//4 
s off
f 42//72 27//72 26//72 
f 62//73 38//73 61//73 
s 1
f 10//4 5//5 63//47 
f 64//48 5//5 19//12 
f 18//4 5//5 73//4 
f 1//1 23//34 13//10 
s off
f 13//74 23//74 22//74 
s 1
f 74//75 5//5 42//5 
s off
f 43//76 58//76 14//76 
s 1
f 69//53 5//5 9//4 
s off
f 33//77 70//77 3//77 
f 71//78 30//78 32//78 
f 16//79 28//79 7//79 
f 31//80 65//80 57//80 
f 46//81 67//81 60//81 
f 72//82 45//82 47//82 
f 59//83 44//83 2//83 
# 0 polygons - 93 triangles

