# 3ds Max Wavefront OBJ Exporter v0.94b - (c)2007 guruware
# File Created: 01.03.2011 19:59:05

#
# object Mesh5
#

v  334.4850 -494.7589 -1124.1311
v  334.4850 930.9070 -1115.8495
v  449.4640 -494.9319 -1094.3466
v  524.0750 -496.2379 -869.5265
v  528.9130 -237.0438 -880.6699
v  524.0750 918.5383 -861.3081
v  735.8770 -495.7802 -948.3211
v  607.9310 -495.3820 -1016.8629
v  735.8770 -194.4353 -946.5705
v  580.5390 -495.3804 -1017.1499
v  583.8830 1051.5443 -1016.9080
v  580.5390 -236.2597 -1015.6447
v  539.4641 -495.7797 -948.4091
v  552.3600 -236.6877 -941.9709
v  551.2880 -496.1644 -882.1751
v  569.4150 1051.3246 -979.0797
v  552.3600 886.8184 -935.4445
v  473.2460 887.5631 -1063.6644
v  473.2460 -495.0635 -1071.6960
v  445.5610 707.0095 -1080.7675
v  386.3220 -495.9215 -923.9965
v  377.0880 812.5390 -899.6205
v  271.9840 -495.6895 -963.9258
v  445.4870 887.2188 -1004.3693
v  421.8710 919.2299 -980.3561
v  310.2830 825.0055 -1019.4710
v  299.7240 -495.3011 -1030.7897
v  271.9840 706.6402 -956.9415
v  319.1980 825.1523 -1044.7496
v  421.8710 824.7814 -980.9047
v  449.8510 824.7252 -971.2349
v  404.8490 824.2504 -889.4842
v  552.3600 1013.4162 -934.7092
v  551.2880 -194.9210 -862.9499
v  688.1550 -195.1244 -827.9360
v  605.2160 -236.3220 -1004.9189
v  481.8630 1014.2387 -1076.2848
v  449.4640 1014.2926 -1085.5796
v  406.7540 887.2754 -1014.1271
v  449.8510 887.0242 -970.8730
v  607.9310 -194.0371 -1015.1124
v  445.5610 887.6564 -1079.7181
v  688.1550 -496.4693 -829.6865
v  406.7540 706.6285 -1015.1766
v  406.7540 824.9766 -1014.4891
v  560.3790 -495.6865 -964.4418
v  547.4830 -236.5373 -967.8696
v  404.8490 -496.0774 -897.1539
v  583.8830 1111.8232 -1016.5579
v  310.2830 -495.1576 -1055.5002
# 50 vertices

vn 0.2508 0.0056 -0.9680
vn 0.4421 0.0303 0.8964
vn 0.9275 0.0247 0.3730
vn 0.9340 -0.0021 0.3572
vn 0.4722 0.0051 -0.8815
vn 0.9075 0.0124 0.4199
vn 0.9834 -0.0446 -0.1758
vn 0.9984 0.0315 0.0480
vn 0.5309 -0.0085 0.8474
vn 0.9896 0.0006 -0.1438
vn 0.5016 0.0050 -0.8651
vn 0.5760 0.0025 -0.8175
vn 0.0000 -1.0000 -0.0058
vn -0.0000 -1.0000 -0.0058
vn -0.3297 -0.0199 0.9439
vn -0.5293 0.7529 0.3912
vn -0.3383 -0.0191 0.9408
vn 0.6739 0.1244 0.7283
vn -0.5213 0.2689 0.8099
vn 0.3589 0.5367 0.7637
vn -0.3267 -0.0055 0.9451
vn -0.4748 -0.0051 0.8801
vn -0.9446 0.0088 -0.3282
vn -0.9660 0.0048 -0.2584
vn -0.9780 0.0012 -0.2085
vn -0.6652 0.6076 0.4340
vn -0.7019 0.5531 0.4488
vn 0.0000 1.0000 0.0058
vn -0.0723 0.9974 -0.0077
vn -0.4402 0.8965 0.0511
vn 0.8760 -0.0028 0.4822
vn -0.2475 -0.0617 0.9669
vn -0.2797 -0.0456 0.9590
vn -0.3986 -0.0053 0.9171
vn -0.7358 0.4769 0.4808
vn -0.7351 0.4797 0.4791
vn -0.7347 0.4812 0.4782
vn 0.5033 -0.0010 -0.8641
vn 0.3005 -0.7483 -0.5914
vn 0.5012 -0.0011 -0.8653
vn -0.8607 0.0030 -0.5092
vn -0.5829 0.5097 0.6328
vn -0.5690 0.5277 0.6306
vn -0.2829 0.9074 0.3109
vn 0.6897 0.0104 -0.7241
vn 0.4743 0.8785 -0.0567
vn -0.1182 0.9866 0.1128
vn 0.3267 0.0055 -0.9451
vn 0.9278 -0.0022 0.3732
vn -0.3581 -0.0054 0.9337
vn -0.7297 0.6040 0.3206
vn -0.2257 -0.0057 0.9742
vn -0.2640 -0.0106 0.9645
vn -0.7102 0.0041 -0.7039
vn -0.8362 0.1147 -0.5364
vn 0.6078 0.0407 0.7931
vn 0.0071 -0.7349 -0.6782
vn -0.5582 0.5414 0.6288
vn -0.9236 0.0107 -0.3831
vn -0.9216 0.0104 -0.3881
vn -0.3266 -0.0055 0.9451
vn -0.8656 0.0090 -0.5006
vn -0.8936 0.0161 -0.4486
vn -0.8403 0.0031 -0.5421
vn -0.9055 0.0194 -0.4238
vn -0.9199 0.0094 -0.3921
vn -0.9253 0.0086 -0.3791
vn -0.7363 0.4747 0.4821
vn -0.2874 0.9521 -0.1044
vn -0.9318 0.0092 -0.3629
vn -0.5569 -0.0529 0.8289
vn -0.9100 0.4042 -0.0921
vn -0.7086 0.5581 -0.4319
vn 0.8222 -0.0200 0.5688
vn 0.8213 0.0484 0.5685
vn 0.9216 0.0050 0.3882
vn -0.3355 -0.0199 0.9418
vn -0.8147 0.4470 0.3693
vn -0.7700 0.5179 0.3727
vn -0.7415 0.4849 0.4637
vn -0.8553 0.0030 -0.5182
vn -0.2443 -0.0056 0.9697
vn -0.9425 -0.0199 -0.3337
vn -0.0152 0.0459 -0.9988
vn -0.9513 -0.0063 -0.3081
vn -0.8760 0.0028 -0.4822
vn -0.8932 0.0026 -0.4496
vn 0.9827 0.0011 -0.1851
vn 0.9817 -0.0443 -0.1851
vn -0.8230 -0.0033 0.5680
# 90 vertex normals

vt 0.4796 0.2894 0.0000
vt 0.0397 0.2549 0.0000
vt 0.4879 0.2152 0.0000
vt 0.1409 0.1389 0.0000
vt 0.2069 0.1261 0.0000
vt 0.5038 0.1209 0.0000
vt 0.6709 0.0886 0.0000
vt 0.7124 0.1333 0.0000
vt 0.5881 0.1122 0.0000
vt 0.3546 0.3598 0.0000
vt 0.8514 0.3631 0.0000
vt 0.4386 0.3618 0.0000
vt 0.0241 0.1108 0.0000
vt 0.1027 0.1560 0.0000
vt 0.0114 0.1373 0.0000
vt 0.5554 0.3202 0.0000
vt 0.6116 0.2840 0.0000
vt 0.9915 0.3270 0.0000
vt 0.9144 0.1999 0.0000
vt 0.5341 0.1780 0.0000
vt 0.8657 0.1737 0.0000
vt 0.9948 0.3481 0.0000
vt 0.9622 0.4092 0.0000
vt 0.9546 0.3368 0.0000
vt 0.9783 0.6281 0.0000
vt 0.5250 0.5042 0.0000
vt 0.9958 0.5929 0.0000
vt 0.5733 0.2520 0.0000
vt 0.0369 0.3602 0.0000
vt 0.0658 0.3191 0.0000
vt 0.4788 0.3292 0.0000
vt 0.5780 0.4773 0.0000
vt 0.0678 0.3070 0.0000
vt 0.8102 0.1702 0.0000
vt 0.8528 0.1338 0.0000
vt 0.8932 0.1363 0.0000
vt 0.5155 0.3868 0.0000
vt 0.5449 0.4427 0.0000
vt 0.5013 0.4525 0.0000
vt 0.5066 0.4465 0.0000
vt 0.5169 0.5107 0.0000
vt 0.4453 0.4321 0.0000
vt 0.0042 0.5931 0.0000
vt 0.3979 0.4453 0.0000
vt 0.0051 0.1452 0.0000
vt 0.0940 0.1803 0.0000
vt 0.5264 0.1861 0.0000
vt 0.5154 0.1859 0.0000
vt 0.5314 0.1622 0.0000
vt 0.2933 0.0793 0.0000
vt 0.4070 0.1183 0.0000
vt 0.2544 0.1183 0.0000
vt 0.1216 0.1292 0.0000
vt 0.2091 0.1077 0.0000
vt 0.1262 0.1376 0.0000
vt 0.5302 0.2783 0.0000
vt 0.6548 0.5929 0.0000
vt 0.0839 0.5801 0.0000
vt 0.6419 0.5490 0.0000
vt 0.9090 0.6177 0.0000
vt 0.4654 0.6316 0.0000
vt 0.3520 0.6316 0.0000
vt 0.9544 0.1770 0.0000
vt 0.9937 0.1498 0.0000
vt 0.9889 0.1985 0.0000
vt 0.5257 0.1124 0.0000
vt 0.5199 0.1017 0.0000
vt 0.9948 0.2277 0.0000
vt 0.5510 0.2277 0.0000
vt 0.9947 0.2156 0.0000
vt 0.9240 0.0711 0.0000
vt 0.9027 0.1306 0.0000
vt 0.8897 0.1198 0.0000
vt 0.9142 0.0281 0.0000
vt 0.5550 0.0043 0.0000
vt 0.2549 0.0389 0.0000
vt 0.9148 0.1919 0.0000
vt 0.3988 0.6333 0.0000
vt 0.0919 0.5848 0.0000
vt 0.6474 0.6192 0.0000
vt 0.0892 0.6292 0.0000
vt 0.6932 0.0682 0.0000
vt 0.7319 0.0399 0.0000
vt 0.7310 0.1382 0.0000
vt 0.4866 0.4696 0.0000
vt 0.4294 0.4944 0.0000
vt 0.5012 0.2108 0.0000
vt 0.8850 0.1467 0.0000
vt 0.9161 0.1633 0.0000
vt 0.8233 0.1407 0.0000
vt 0.7962 0.1467 0.0000
vt 0.8162 0.0947 0.0000
vt 0.5489 0.2424 0.0000
vt 0.5427 0.2315 0.0000
vt 0.9281 0.2053 0.0000
vt 0.5131 0.2247 0.0000
vt 0.5134 0.2004 0.0000
vt 0.8019 0.1702 0.0000
vt 0.9333 0.1683 0.0000
vt 0.9527 0.1991 0.0000
vt 0.0292 0.0996 0.0000
vt 0.1044 0.1447 0.0000
vt 0.0598 0.6254 0.0000
vt 0.1217 0.1956 0.0000
vt 0.7423 0.0991 0.0000
vt 0.7937 0.1698 0.0000
vt 0.7391 0.1661 0.0000
vt 0.9455 0.1236 0.0000
vt 0.0101 0.2125 0.0000
vt 0.5562 0.1717 0.0000
vt 0.9190 0.3948 0.0000
vt 0.9196 0.3689 0.0000
vt 0.4395 0.3670 0.0000
vt 0.0702 0.3990 0.0000
vt 0.0233 0.3949 0.0000
vt 0.5803 0.3798 0.0000
vt 0.9483 0.2121 0.0000
vt 0.9920 0.2075 0.0000
vt 0.7916 0.1550 0.0000
vt 0.7621 0.1144 0.0000
vt 0.7840 0.0990 0.0000
vt 0.6771 0.5934 0.0000
vt 0.5542 0.3341 0.0000
vt 0.9958 0.0919 0.0000
vt 0.9958 0.1421 0.0000
vt 0.9823 0.1356 0.0000
vt 0.5352 0.3423 0.0000
vt 0.4793 0.3182 0.0000
vt 0.9289 0.3611 0.0000
vt 0.3137 0.0762 0.0000
vt 0.2808 0.0311 0.0000
vt 0.9937 0.3101 0.0000
vt 0.3508 0.3813 0.0000
vt 0.0685 0.6323 0.0000
vt 0.9437 0.1684 0.0000
vt 0.9218 0.1368 0.0000
vt 0.5647 0.2351 0.0000
vt 0.5835 0.1730 0.0000
vt 0.8547 0.1184 0.0000
vt 0.5135 0.1907 0.0000
vt 0.5428 0.1634 0.0000
vt 0.5359 0.1733 0.0000
vt 0.5370 0.1186 0.0000
vt 0.8374 0.3551 0.0000
vt 0.3498 0.3551 0.0000
vt 0.3501 0.3431 0.0000
# 146 texture coords

g Mesh5
s 1
f 1/1/1 2/2/1 3/3/1 
s 2
f 4/4/2 5/5/3 6/6/4 
f 7/7/5 8/8/5 9/9/5 
s 4
f 10/10/4 11/11/4 12/12/6 
s 2
f 13/13/7 14/14/8 15/15/9 
s 4
f 16/16/4 17/17/10 12/18/6 
s 1
f 18/19/11 19/20/12 20/21/11 
s 8
f 3/22/13 21/23/13 1/24/14 
s 1
f 21/25/15 22/26/16 23/27/17 
s 2
f 17/17/18 16/16/19 24/28/19 
s 1
f 25/29/20 26/30/21 27/31/21 
f 28/32/22 23/27/17 22/26/16 
s 2
f 1/1/23 29/33/24 2/2/25 
s 32
f 26/34/21 30/35/21 25/36/21 
s 8
f 25/37/26 26/38/26 22/26/27 
s 1
f 31/39/28 30/40/29 32/41/30 
s 2
f 22/26/31 30/40/31 25/37/31 
f 33/42/4 5/43/3 17/44/18 
f 4/45/2 15/15/9 5/46/3 
s 8
f 15/47/14 4/48/13 13/49/13 
s 2
f 34/50/32 15/51/9 35/52/33 
f 12/53/34 10/54/34 36/55/34 
s 64
f 16/16/35 37/56/36 24/28/37 
s 1
f 11/57/38 10/58/39 37/59/40 
s 2
f 3/60/41 20/61/41 38/62/41 
s 4
f 39/63/42 2/64/43 29/65/44 
s 8
f 19/66/13 4/48/13 3/67/13 
s 1
f 3/68/45 20/69/45 19/70/12 
f 17/71/28 24/72/46 40/73/47 
s 4
f 33/74/48 17/71/10 40/73/48 
f 9/9/49 35/75/49 7/7/49 
s 1
f 41/76/28 34/50/28 35/52/28 
f 42/77/11 18/19/11 20/21/11 
s 2
f 42/78/41 38/62/41 20/61/41 
s 8
f 13/49/13 4/48/13 19/66/13 
s 1
f 19/79/12 37/80/40 10/81/39 
s 2
f 43/82/50 35/75/33 15/83/9 
s 1
f 43/82/14 15/83/13 10/84/39 
f 40/85/47 32/41/30 6/86/51 
s 4
f 6/6/52 32/87/53 4/4/52 
s 2
f 44/88/41 45/89/41 42/77/41 
f 42/90/41 39/91/41 38/92/41 
s 32
f 18/93/28 42/94/28 24/28/28 
s 1
f 36/55/13 5/46/13 14/14/13 
s 2
f 5/46/3 15/15/9 14/14/8 
f 17/95/18 5/96/4 14/97/4 
f 45/98/41 39/91/41 42/90/41 
s 16
f 25/36/54 24/72/55 30/99/54 
s 1
f 45/100/21 39/63/21 29/65/21 
s 16
f 46/101/56 47/102/56 13/13/56 
s 8
f 10/81/57 13/103/13 19/79/13 
s 4
f 48/104/52 4/4/52 32/87/53 
s 8
f 3/105/13 4/106/13 21/107/13 
s 4
f 38/108/58 2/64/43 39/63/58 
s 1
f 38/109/1 3/3/1 2/2/1 
s 2
f 41/110/5 9/9/5 8/8/5 
s 1
f 9/9/28 41/110/28 35/75/28 
s 8
f 23/111/14 27/112/14 21/23/13 
s 2
f 27/112/59 23/111/60 26/113/59 
s 1
f 25/36/20 40/73/47 24/72/46 
s 8
f 25/36/61 30/35/61 40/73/61 
s 4
f 18/114/62 37/115/63 19/116/64 
f 37/56/63 18/93/62 24/28/65 
s 2
f 27/31/66 26/30/67 29/33/24 
s 4
f 30/117/28 29/65/44 26/118/28 
s 1
f 7/7/13 43/82/14 8/8/14 
s 4
f 43/82/49 7/7/49 35/75/49 
s 64
f 37/119/36 16/120/35 49/121/68 
s 2
f 11/57/11 37/59/11 49/122/11 
s 4
f 11/123/4 16/16/4 12/18/6 
s 8
f 37/124/69 16/125/69 11/126/69 
s 4
f 16/16/4 11/123/4 49/127/4 
s 2
f 29/33/24 1/1/23 50/128/70 
s 8
f 1/24/14 21/23/13 50/129/14 
f 5/130/71 15/51/71 34/50/72 
f 5/130/73 34/50/72 36/131/73 
s 1
f 12/53/13 36/55/13 47/102/13 
s 4
f 47/132/74 12/18/74 17/17/10 
f 47/102/75 46/101/76 12/53/6 
f 10/10/4 12/12/6 46/133/76 
s 8
f 46/134/14 13/103/13 10/81/57 
s 1
f 22/26/16 32/41/30 30/40/29 
s 4
f 22/26/77 21/25/77 32/41/53 
f 45/100/28 29/65/44 30/117/28 
s 16
f 45/135/78 30/99/78 24/72/55 
s 1
f 40/85/47 6/86/51 33/42/79 
s 2
f 33/42/4 6/86/4 5/43/3 
s 8
f 22/26/27 26/38/80 28/32/80 
s 2
f 28/32/81 26/38/67 23/27/60 
f 20/21/41 44/88/41 42/77/41 
s 8
f 39/136/82 45/135/82 24/72/82 
s 32
f 39/137/28 24/28/28 42/94/28 
s 8
f 41/110/83 8/8/84 36/138/85 
f 41/76/83 36/131/85 34/50/72 
s 2
f 31/39/86 32/41/87 40/85/86 
s 8
f 31/139/61 40/73/61 30/35/61 
s 1
f 8/8/14 43/82/14 10/84/39 
s 8
f 36/138/85 8/8/84 10/84/57 
s 2
f 47/140/88 17/95/18 14/97/8 
s 1
f 47/102/13 36/55/13 14/14/13 
s 32
f 14/14/89 13/13/89 47/102/89 
s 8
f 48/141/13 21/142/13 4/143/13 
s 2
f 32/144/87 21/145/90 48/146/90 
s 8
f 50/129/14 21/23/13 27/112/14 
s 2
f 29/33/24 50/128/70 27/31/66 
# 0 polygons - 105 triangles

