# 3ds Max Wavefront OBJ Exporter v0.94b - (c)2007 guruware
# File Created: 01.03.2011 20:05:25

#
# object Mesh39
#

v  520.5590 -498.3661 -503.1676
v  520.5590 -220.1917 -501.5517
v  436.1080 -499.4664 -313.7437
v  436.1080 -221.2921 -312.1278
# 4 vertices

vn 0.9133 -0.0024 0.4072
# 1 vertex normals

vt 0.8110 0.0918 0.0000
vt 0.6947 0.0918 0.0000
vt 0.8110 0.0050 0.0000
vt 0.6947 0.0050 0.0000
# 4 texture coords

g Mesh39
s 1
f 1/1/1 2/2/1 3/3/1 
f 3/3/1 2/2/1 4/4/1 
# 0 polygons - 2 triangles

#
# object Mesh38
#

v  436.1080 -499.4664 -313.7437
v  436.1080 -221.2921 -312.1278
v  158.2910 -498.7469 -437.5977
v  158.2910 -220.5726 -435.9818
# 4 vertices

vn -0.4072 -0.0053 0.9133
# 1 vertex normals

vt 0.1819 0.8363 0.0000
vt 0.1135 0.9304 0.0000
vt 0.0789 0.7615 0.0000
vt 0.0105 0.8556 0.0000
# 4 texture coords

g Mesh38
s 1
f 5/5/2 6/6/2 7/7/2 
f 6/6/2 8/8/2 7/7/2 
# 0 polygons - 2 triangles

#
# object Mesh37
#

v  492.9090 -220.1373 -510.9305
v  492.9090 754.3674 -505.2696
v  475.4810 -220.3444 -475.2621
v  475.4810 754.1601 -469.6013
# 4 vertices

vn 0.8985 -0.0026 0.4390
# 1 vertex normals

vt 0.5617 0.2234 0.0000
vt 0.1540 0.2234 0.0000
vt 0.5617 0.2068 0.0000
vt 0.1540 0.2068 0.0000
# 4 texture coords

g Mesh37
s 1
f 9/9/3 10/10/3 11/11/3 
f 11/11/3 10/10/3 12/12/3 
# 0 polygons - 2 triangles

#
# object Mesh34
#

v  415.8310 -112.9884 -352.5544
v  415.8310 884.4489 -346.7604
v  225.6820 -112.4488 -445.4599
v  225.6820 884.9885 -439.6658
# 4 vertices

vn -0.4390 -0.0052 0.8985
# 1 vertex normals

vt 0.3586 0.9061 0.0000
vt 0.7760 0.9061 0.0000
vt 0.3586 0.9946 0.0000
vt 0.7760 0.9946 0.0000
# 4 texture coords

g Mesh34
s 1
f 13/13/4 14/14/4 15/15/4 
f 15/15/4 14/14/4 16/16/4 
# 0 polygons - 2 triangles

#
# object Mesh33
#

v  415.8310 -221.0536 -353.1822
v  415.8310 548.8845 -348.7097
v  402.9860 -221.2063 -326.8936
v  402.9860 548.7317 -322.4211
# 4 vertices

vn 0.8985 -0.0026 0.4390
# 1 vertex normals

vt 0.9030 0.6446 0.0000
vt 0.9030 0.9668 0.0000
vt 0.8908 0.6446 0.0000
vt 0.8908 0.9668 0.0000
# 4 texture coords

g Mesh33
s 1
f 17/17/5 18/18/5 19/19/5 
f 19/19/5 18/18/5 20/20/5 
# 0 polygons - 2 triangles

#
# object Mesh30
#

v  475.4810 -220.3444 -475.2621
v  475.4810 885.1578 -468.8403
v  415.8310 -221.0536 -353.1822
v  415.8310 884.4489 -346.7604
# 4 vertices

vn 0.8985 -0.0026 0.4390
# 1 vertex normals

vt 0.1567 0.3046 0.0000
vt 0.1567 0.7671 0.0000
vt 0.0999 0.3046 0.0000
vt 0.0999 0.7671 0.0000
# 4 texture coords

g Mesh30
s 1
f 21/21/6 22/22/6 23/23/6 
f 23/23/6 22/22/6 24/24/6 
# 0 polygons - 2 triangles

#
# object Mesh29
#

v  299.4380 -219.6371 -597.0381
v  299.4380 754.8676 -591.3773
v  492.9090 -220.1373 -510.9305
v  492.9090 754.3674 -505.2696
# 4 vertices

vn 0.4066 0.0053 -0.9136
# 1 vertex normals

vt 0.0940 0.2999 0.0000
vt 0.0940 0.7076 0.0000
vt 0.0054 0.2999 0.0000
vt 0.0054 0.7076 0.0000
# 4 texture coords

g Mesh29
s 1
f 25/25/7 26/26/7 27/27/7 
f 27/27/7 26/26/7 28/28/7 
# 0 polygons - 2 triangles

#
# object Mesh28
#

v  280.8440 -219.8581 -558.9837
v  280.8440 885.6442 -552.5620
v  475.4810 -220.3444 -475.2621
v  475.4810 885.1578 -468.8403
# 4 vertices

vn 0.3951 0.0053 -0.9186
# 1 vertex normals

vt 0.9645 0.1763 0.0000
vt 0.9645 0.6388 0.0000
vt 0.8758 0.1763 0.0000
vt 0.8758 0.6388 0.0000
# 4 texture coords

g Mesh28
s 1
f 29/29/8 30/30/8 31/31/8 
f 31/31/8 30/30/8 32/32/8 
# 0 polygons - 2 triangles

#
# object Mesh27
#

v  299.4380 -495.9763 -598.6432
v  299.4380 -226.3310 -597.0770
v  518.0940 -496.5416 -501.3270
v  518.0940 -226.8963 -499.7606
# 4 vertices

vn 0.4066 0.0053 -0.9136
# 1 vertex normals

vt 0.9294 0.1054 0.0000
vt 0.8166 0.1054 0.0000
vt 0.9294 0.0052 0.0000
vt 0.8166 0.0052 0.0000
# 4 texture coords

g Mesh27
s 1
f 33/33/9 34/34/9 35/35/9 
f 35/35/9 34/34/9 36/36/9 
# 0 polygons - 2 triangles

#
# object Mesh26
#

v  402.9860 -224.7813 -326.9144
v  402.9860 548.7317 -322.4211
v  230.1410 -224.3336 -403.9711
v  230.1410 549.1794 -399.4778
# 4 vertices

vn -0.4072 -0.0053 0.9133
# 1 vertex normals

vt 0.0923 0.1220 0.0000
vt 0.4159 0.1220 0.0000
vt 0.0923 0.2012 0.0000
vt 0.4159 0.2012 0.0000
# 4 texture coords

g Mesh26
s 1
f 37/37/10 38/38/10 39/39/10 
f 39/39/10 38/38/10 40/40/10 
# 0 polygons - 2 triangles

#
# object Mesh25
#

v  158.2910 -498.7469 -437.5977
v  158.2910 -220.5726 -435.9818
v  210.0810 -497.5804 -638.4243
v  210.0810 -219.4060 -636.8084
# 4 vertices

vn -0.9683 0.0015 -0.2497
# 1 vertex normals

vt 0.2978 0.0918 0.0000
vt 0.1814 0.0918 0.0000
vt 0.2978 0.0050 0.0000
vt 0.1814 0.0050 0.0000
# 4 texture coords

g Mesh25
s 1
f 41/41/11 42/42/11 43/43/11 
f 43/43/11 42/42/11 44/44/11 
# 0 polygons - 2 triangles

#
# object Mesh24
#

v  280.8440 -280.2611 -559.3346
v  280.8440 754.6464 -553.3229
v  299.4380 -280.0400 -597.3890
v  299.4380 754.8676 -591.3773
# 4 vertices

vn -0.8985 0.0026 -0.4390
# 1 vertex normals

vt 0.3640 0.8824 0.0000
vt 0.7970 0.8824 0.0000
vt 0.3640 0.9001 0.0000
vt 0.7970 0.9001 0.0000
# 4 texture coords

g Mesh24
s 1
f 45/45/12 46/46/12 47/47/12 
f 47/47/12 46/46/12 48/48/12 
# 0 polygons - 2 triangles

#
# object Mesh23
#

v  468.9150 -499.2779 -346.1963
v  468.9150 -221.1036 -344.5803
v  453.6170 -499.2383 -353.0171
v  453.6170 -221.0639 -351.4012
# 4 vertices

vn -0.4072 -0.0053 0.9133
# 1 vertex normals

vt 0.5418 0.0689 0.0000
vt 0.4255 0.0689 0.0000
vt 0.5418 0.0619 0.0000
vt 0.4255 0.0619 0.0000
# 4 texture coords

g Mesh23
s 1
f 49/49/13 50/50/13 51/51/13 
f 51/51/13 50/50/13 52/52/13 
# 0 polygons - 2 triangles

#
# object Mesh21
#

v  230.1410 -281.1617 -404.3012
v  230.1410 552.7493 -399.4570
v  246.8420 -280.9770 -436.1007
v  246.8420 552.9340 -431.2566
# 4 vertices

vn -0.8853 0.0027 -0.4650
# 1 vertex normals

vt 0.8855 0.6444 0.0000
vt 0.8855 0.9933 0.0000
vt 0.8705 0.6444 0.0000
vt 0.8705 0.9933 0.0000
# 4 texture coords

g Mesh21
s 1
f 53/53/14 54/54/14 55/55/14 
f 55/55/14 54/54/14 56/56/14 
# 0 polygons - 2 triangles

#
# object Mesh19
#

v  225.6820 -280.9169 -446.4385
v  225.6820 884.9885 -439.6658
v  280.8440 -280.2611 -559.3346
v  280.8440 885.6442 -552.5620
# 4 vertices

vn -0.8985 0.0026 -0.4390
# 1 vertex normals

vt 0.2149 0.3096 0.0000
vt 0.2149 0.7974 0.0000
vt 0.1624 0.3096 0.0000
vt 0.1624 0.7974 0.0000
# 4 texture coords

g Mesh19
s 1
f 57/57/15 58/58/15 59/59/15 
f 59/59/15 58/58/15 60/60/15 
# 0 polygons - 2 triangles

#
# object Mesh18
#

v  518.0940 -498.6371 -456.5033
v  518.0940 -220.4628 -454.8875
v  468.9150 -499.2779 -346.1963
v  468.9150 -221.1036 -344.5803
# 4 vertices

vn 0.9133 -0.0024 0.4072
# 1 vertex normals

vt 0.5418 0.0561 0.0000
vt 0.4255 0.0561 0.0000
vt 0.5418 0.0055 0.0000
vt 0.4255 0.0055 0.0000
# 4 texture coords

g Mesh18
s 1
f 61/61/16 62/62/16 63/63/16 
f 63/63/16 62/62/16 64/64/16 
# 0 polygons - 2 triangles

#
# object Mesh17
#

v  328.6660 -498.1465 -540.9529
v  328.6660 -219.9722 -539.3370
v  518.0940 -498.6371 -456.5033
v  518.0940 -220.4628 -454.8875
# 4 vertices

vn 0.4072 0.0053 -0.9133
# 1 vertex normals

vt 0.4198 0.0918 0.0000
vt 0.3034 0.0918 0.0000
vt 0.4198 0.0050 0.0000
vt 0.3034 0.0050 0.0000
# 4 texture coords

g Mesh17
s 1
f 65/65/17 66/66/17 67/67/17 
f 67/67/17 66/66/17 68/68/17 
# 0 polygons - 2 triangles

#
# object Mesh16
#

v  211.1680 -497.5662 -640.8672
v  211.1680 -219.3918 -639.2514
v  520.5590 -498.3661 -503.1676
v  520.5590 -220.1917 -501.5517
# 4 vertices

vn 0.4066 0.0053 -0.9136
# 1 vertex normals

vt 0.6891 0.0053 0.0000
vt 0.6891 0.1217 0.0000
vt 0.5474 0.0053 0.0000
vt 0.5474 0.1217 0.0000
# 4 texture coords

g Mesh16
s 1
f 69/69/18 70/70/18 71/71/18 
f 70/70/18 72/72/18 71/71/18 
# 0 polygons - 2 triangles

#
# object Mesh7
#

v  415.8310 884.4489 -346.7604
v  246.8420 549.3640 -431.2773
v  415.8310 548.8845 -348.7097
v  225.6820 884.9885 -439.6658
v  225.6820 -220.5139 -446.0876
v  246.8420 -220.5740 -435.7498
v  230.1410 -220.7587 -403.9503
v  158.2910 -220.5726 -435.9818
v  210.0810 -219.4060 -636.8084
v  158.2910 -498.7469 -437.5977
v  210.0810 -497.5804 -638.4243
v  436.1080 -499.4664 -313.7437
v  501.4190 -498.5940 -463.9372
v  453.6170 -499.2383 -353.0171
v  436.1080 -221.2921 -312.1278
v  453.6170 -221.0639 -351.4012
v  475.4810 -220.3444 -475.2621
v  468.9150 -221.1036 -344.5803
v  501.4190 -220.4196 -462.3214
v  492.9090 -220.1373 -510.9305
v  475.4810 754.1601 -469.6013
v  492.9090 754.3674 -505.2696
v  299.4380 754.8676 -591.3773
v  299.4380 -219.6371 -597.0381
v  518.0940 -498.3767 -501.3376
v  518.0940 -220.2024 -499.7217
v  518.0940 -498.6371 -456.5033
v  518.0940 -220.4628 -454.8875
v  468.9150 -499.2779 -346.1963
v  280.8440 -219.8581 -558.9837
v  280.8440 885.6442 -552.5620
v  280.8440 754.6464 -553.3229
v  475.4810 885.1578 -468.8403
v  415.8310 -221.0536 -353.1822
v  402.9860 -221.2063 -326.8936
v  402.9860 548.7317 -322.4211
v  230.1410 549.1794 -399.4778
# 37 vertices

vn -0.4390 -0.0052 0.8985
vn 0.0000 1.0000 0.0058
vn -0.9683 0.0015 -0.2497
vn 0.0000 -1.0000 -0.0058
vn 0.9133 -0.0024 0.4072
vn 0.8985 -0.0026 0.4390
vn 0.4066 0.0053 -0.9136
vn 1.0000 0.0000 -0.0000
vn 0.4072 0.0053 -0.9133
vn -0.4072 -0.0053 0.9133
vn -0.8985 0.0026 -0.4390
vn 0.3951 0.0053 -0.9186
vn -0.8853 0.0027 -0.4650
# 13 vertex normals

vt 0.7794 0.2160 0.0000
vt 0.6895 0.3077 0.0000
vt 0.6552 0.2469 0.0000
vt 0.7966 0.4626 0.0000
vt 0.8426 0.3604 0.0000
vt 0.8698 0.5987 0.0000
vt 0.8789 0.1133 0.0000
vt 0.8527 0.8905 0.0000
vt 0.4341 0.7741 0.0000
vt 0.4365 0.7709 0.0000
vt 0.4176 0.7582 0.0000
vt 0.4204 0.7868 0.0000
vt 0.6244 0.6673 0.0000
vt 0.5860 0.7252 0.0000
vt 0.5764 0.6979 0.0000
vt 0.7034 0.8377 0.0000
vt 0.7156 0.7374 0.0000
vt 0.8523 0.7270 0.0000
vt 0.8102 0.6528 0.0000
vt 0.1861 0.9268 0.0000
vt 0.2003 0.9276 0.0000
vt 0.1365 0.9328 0.0000
vt 0.3004 0.7938 0.0000
vt 0.2807 0.7968 0.0000
vt 0.2478 0.7736 0.0000
vt 0.2691 0.8022 0.0000
vt 0.2384 0.7785 0.0000
vt 0.6953 0.5751 0.0000
vt 0.7231 0.5684 0.0000
vt 0.7371 0.5775 0.0000
vt 0.4832 0.2289 0.0000
vt 0.4742 0.2665 0.0000
vt 0.3826 0.3298 0.0000
vt 0.6095 0.6335 0.0000
vt 0.7918 0.6488 0.0000
vt 0.7277 0.5860 0.0000
vt 0.8247 0.6524 0.0000
vt 0.2375 0.7886 0.0000
vt 0.1323 0.9195 0.0000
vt 0.1829 0.9222 0.0000
vt 0.5891 0.6379 0.0000
vt 0.3100 0.2986 0.0000
vt 0.3553 0.3351 0.0000
vt 0.7823 0.1572 0.0000
vt 0.7448 0.1302 0.0000
vt 0.8524 0.1132 0.0000
vt 0.4218 0.1252 0.0000
vt 0.7287 0.4476 0.0000
vt 0.3113 0.7652 0.0000
vt 0.2203 0.3528 0.0000
vt 0.3256 0.7660 0.0000
vt 0.3394 0.9026 0.0000
vt 0.2370 0.3542 0.0000
vt 0.3529 0.9862 0.0000
vt 0.0307 0.9862 0.0000
vt 0.3529 0.9070 0.0000
vt 0.6764 0.3138 0.0000
vt 0.7508 0.5786 0.0000
vt 0.6438 0.2630 0.0000
# 59 texture coords

g Mesh7
s 1
f 73/73/19 74/74/19 75/75/19 
f 76/76/19 74/77/19 73/78/19 
f 77/79/19 74/77/19 76/76/19 
f 74/80/19 77/81/19 78/82/19 
s 2
f 78/82/20 77/81/20 79/83/20 
f 79/83/20 77/81/20 80/84/20 
f 81/85/20 80/86/20 77/87/20 
s 1
f 81/85/21 82/88/21 80/86/21 
f 83/89/21 82/88/21 81/85/21 
s 2
f 82/88/22 83/89/22 84/90/22 
f 85/91/22 84/90/22 83/89/22 
f 86/92/22 84/93/22 85/94/22 
s 1
f 84/93/23 86/92/23 87/95/23 
f 88/96/23 87/95/23 86/92/23 
s 4
f 88/96/20 89/97/20 87/95/20 
f 90/98/20 89/97/20 88/96/20 
f 91/99/20 89/97/20 90/98/20 
f 92/100/20 89/101/20 91/102/20 
s 8
f 89/101/24 92/100/24 93/103/24 
f 94/104/24 93/103/24 92/100/24 
s 1
f 94/104/20 95/105/20 93/103/20 
s 16
f 95/105/25 94/104/25 96/106/25 
f 94/104/25 92/100/25 96/106/25 
s 2
f 92/100/26 81/85/20 96/106/20 
s 32
f 81/85/25 92/100/25 97/107/25 
f 92/100/25 98/108/25 97/107/25 
s 4
f 91/102/20 98/108/20 92/100/20 
s 1
f 98/108/23 91/102/23 97/107/23 
f 85/91/23 97/107/23 91/102/23 
s 2
f 97/107/22 85/91/22 83/89/22 
s 32
f 83/89/25 81/85/25 97/107/25 
s 8
f 85/91/27 91/102/27 99/109/27 
f 100/110/27 99/111/27 91/99/27 
s 1
f 100/110/23 90/98/23 99/111/23 
s 4
f 100/110/20 91/99/20 90/98/20 
s 1
f 99/111/23 90/98/23 101/112/23 
s 8
f 90/98/28 86/92/28 101/112/28 
f 88/96/28 86/92/28 90/98/28 
s 2
f 101/112/22 86/92/22 85/94/22 
f 85/94/22 99/111/22 101/112/22 
f 77/87/20 102/113/20 81/85/20 
f 81/85/20 102/113/20 96/106/20 
s 4
f 103/114/29 102/113/29 77/87/29 
s 8
f 102/113/26 103/114/26 104/115/26 
s 2
f 104/115/30 103/114/30 93/103/30 
f 105/116/30 93/117/30 103/118/30 
s 8
f 89/119/24 93/117/24 73/73/24 
f 73/73/24 93/117/24 105/116/24 
s 16
f 105/116/20 103/118/20 73/73/20 
f 76/76/20 73/78/20 103/120/20 
s 4
f 76/76/29 103/120/29 77/79/29 
s 8
f 89/119/24 73/73/24 75/75/24 
f 106/121/24 89/97/24 75/122/24 
s 4
f 89/97/20 106/121/20 87/95/20 
f 107/123/20 87/95/20 106/121/20 
s 16
f 107/123/28 82/124/28 87/95/28 
f 82/124/28 107/123/28 80/84/28 
s 2
f 80/84/20 107/123/20 79/83/20 
s 1
f 108/125/28 79/83/28 107/123/28 
f 109/126/28 79/127/28 108/128/28 
s 4
f 109/129/31 74/74/31 79/130/31 
s 2
f 109/129/20 108/131/20 74/74/20 
f 75/75/20 74/74/20 108/131/20 
s 8
f 75/122/24 108/125/24 106/121/24 
f 106/121/24 108/125/24 107/123/24 
s 4
f 78/82/31 79/83/31 74/80/31 
s 16
f 87/95/28 82/124/28 84/93/28 
s 1
f 104/115/20 93/103/20 95/105/20 
s 32
f 104/115/29 95/105/29 102/113/29 
f 96/106/29 102/113/29 95/105/29 
# 0 polygons - 70 triangles

