# 3ds Max Wavefront OBJ Exporter v0.94b - (c)2007 guruware
# File Created: 01.03.2011 19:57:04

#
# Mesh13
#

v  -83.8073 1106.2080 -1237.7313
v  -30.8303 -251.9986 -1353.3098
v  -138.7530 1107.1420 -1398.5087
# 3 vertices

vn 0.9444 0.0643 -0.3224
# 1 vertex normals

vt 0.0898 0.9937 0.0000
vt 0.0898 0.5380 0.0000
vt 0.1464 0.9902 0.0000
# 3 texture coords

g main
s 1
f 1/1/1 2/2/1 3/3/1 
# 0 polygons - 1 triangles

#
# Mesh12
#

v  -245.2560 1105.8925 -1183.4092
v  -137.5690 -253.2474 -1138.3265
v  -84.4766 1106.2118 -1238.3533
v  -31.3837 -251.9936 -1354.1678
# 4 vertices

vn 0.3227 0.0569 0.9448
vn 0.8973 -0.0026 0.4414
# 2 vertex normals

vt 0.1260 0.4629 0.0000
vt 0.1260 0.0073 0.0000
vt 0.1827 0.4594 0.0000
vt 0.2063 0.0044 0.0000
# 4 texture coords

s 1
f 4/4/2 5/5/2 6/6/2 
s 2
f 5/5/3 7/7/3 6/6/3 
# 0 polygons - 2 triangles

#
# Mesh11
#

v  -37.6276 -493.4888 -1342.7804
v  -32.2797 -252.0047 -1352.2479
v  -132.2940 -494.6066 -1150.3547
v  -138.4650 -253.2585 -1136.4075
# 4 vertices

vn 0.8973 -0.0026 0.4414
# 1 vertex normals

vt 0.0121 0.8071 0.0000
vt 0.0050 0.7266 0.0000
vt 0.0836 0.8044 0.0000
vt 0.0853 0.7237 0.0000
# 4 texture coords

s 1
f 8/8/4 9/9/4 10/10/4 
f 11/11/4 10/10/4 9/9/4 
# 0 polygons - 2 triangles

#
# Mesh9
#

v  -30.8303 -251.9986 -1353.3098
v  -137.5690 -253.2474 -1138.3265
v  -247.4600 -251.3795 -1459.8800
v  -353.7110 -252.6341 -1243.9066
v  -348.3630 -493.9919 -1256.1790
v  -132.2940 -494.6066 -1150.3547
v  -245.4920 1105.8932 -1183.5253
v  -234.2700 -492.8381 -1454.7936
v  -235.1200 -492.8366 -1455.0475
v  -300.4370 1106.8271 -1344.3015
v  -84.1999 1106.2092 -1237.9252
v  -139.1450 1107.1432 -1398.7015
v  -300.5530 1106.8258 -1344.0665
v  -37.5367 -493.4898 -1342.6044
# 14 vertices

vn 0.0000 -1.0000 -0.0058
vn -0.8973 0.0026 -0.4414
vn -0.8905 -0.0116 -0.4549
vn -0.8831 -0.0260 -0.4684
vn -0.4393 -0.0543 0.8967
vn -0.4390 -0.0306 0.8980
vn -0.4388 -0.0548 0.8969
vn -0.4388 -0.0309 0.8981
vn -0.4389 -0.0050 0.8985
vn 0.4414 0.0052 -0.8973
vn 0.4685 -0.0236 -0.8832
vn -0.8676 -0.0542 -0.4943
vn -0.9444 0.0609 0.3231
vn 0.0000 1.0000 0.0058
vn 0.4946 -0.0522 -0.8676
# 15 vertex normals

vt 0.3166 0.6288 0.0000
vt 0.3166 0.5487 0.0000
vt 0.3973 0.6285 0.0000
vt 0.2949 0.7965 0.0000
vt 0.3714 0.7716 0.0000
vt 0.3237 0.8719 0.0000
vt 0.2486 0.9006 0.0000
vt 0.2198 0.8251 0.0000
vt 0.3970 0.5481 0.0000
vt 0.3539 0.0945 0.0000
vt 0.0851 0.8118 0.0000
vt 0.0851 0.8925 0.0000
vt 0.0044 0.8167 0.0000
vt 0.3964 0.8484 0.0000
vt 0.4106 0.0927 0.0000
vt 0.3518 0.0377 0.0000
vt 0.4085 0.0359 0.0000
vt 0.1929 0.3524 0.0000
vt 0.0043 0.8924 0.0000
# 19 texture coords

s 8
f 12/12/5 13/13/5 14/14/5 
s 4
f 15/15/6 14/16/7 16/17/8 
s 1
f 17/18/9 13/19/10 16/17/11 
s 8
f 15/20/5 14/14/5 13/13/5 
s 1
f 15/20/12 13/13/10 18/21/13 
f 15/15/12 16/17/11 13/19/10 
f 14/22/14 12/23/14 19/24/15 
s 4
f 20/25/16 16/17/8 14/16/7 
s 8
f 21/26/17 15/20/17 18/21/17 
s 2
f 22/27/18 23/28/18 18/21/18 
s 4
f 14/16/7 15/15/6 24/29/6 
s 1
f 19/24/15 12/23/19 25/30/19 
s 2
f 21/26/18 18/21/18 23/28/18 
# 0 polygons - 13 triangles

#
# Mesh8
#

v  -139.6570 1107.1464 -1399.2465
v  -247.5800 -251.3774 -1460.2321
v  -300.4370 1106.8271 -1344.3015
v  -31.7351 -251.9943 -1354.0479
# 4 vertices

vn -0.3228 0.0680 -0.9440
vn 0.4414 0.0052 -0.8973
# 2 vertex normals

vt 0.1499 0.9806 0.0000
vt 0.2290 0.5319 0.0000
vt 0.2063 0.9869 0.0000
vt 0.1490 0.5249 0.0000
# 4 texture coords

s 4
f 26/31/20 27/32/20 28/33/20 
s 2
f 29/34/21 27/32/21 26/31/21 
# 0 polygons - 2 triangles

#
# Mesh6
#

v  -200.4850 1148.9629 -1290.0828
v  -216.3790 1149.4081 -1366.7085
v  -193.7190 1148.7617 -1255.4524
v  -149.6550 1106.1783 -1232.6053
v  -181.3170 1106.9352 -1362.8971
v  -184.6860 1106.0995 -1219.0466
v  -224.7870 1148.5430 -1217.8210
v  -216.3790 1149.1428 -1321.0463
v  -227.7310 1148.8002 -1262.0902
v  -218.6640 1106.9117 -1358.8672
v  -248.9920 1106.7831 -1336.7046
v  -221.8030 1106.1331 -1224.8206
v  -153.3330 1148.9434 -1286.7289
v  -119.3430 1142.8002 -1258.6660
v  -115.3790 1143.0950 -1309.4242
v  -163.6130 1137.4550 -1216.4524
v  -130.1990 1137.5967 -1240.8700
v  -163.6130 1148.8002 -1262.0902
v  -146.9590 1106.8469 -1347.7145
v  -188.2550 1149.2098 -1332.5912
v  -218.6640 1138.2811 -1358.6849
v  -221.3280 1138.3212 -1365.5709
v  -248.9920 1138.1523 -1336.5223
v  -163.6130 1116.8553 -1216.5721
v  -204.7590 1116.8295 -1212.1322
v  -221.8030 1137.5026 -1224.6383
v  -264.6190 1137.8428 -1283.2274
v  -242.6130 1142.6262 -1228.7115
v  -180.1820 1138.3469 -1370.0098
v  -160.1540 1117.7133 -1364.2576
v  -216.3790 1143.4280 -1366.7432
v  -112.9820 1117.3383 -1299.7076
v  -133.8810 1117.5371 -1333.9462
v  -117.9100 1138.0557 -1319.8687
v  -271.4710 1117.3597 -1303.4196
v  -267.0310 1117.1207 -1262.2743
v  -271.9590 1142.9381 -1282.4047
v  -254.7420 1117.5797 -1341.2729
v  -254.7420 1138.1793 -1341.1533
v  -113.4710 1137.8167 -1278.7234
v  -142.3290 1143.3496 -1353.2524
v  -142.3290 1117.6503 -1353.4017
v  -120.7660 1137.8232 -1279.8584
v  -146.9590 1138.2164 -1347.5322
v  -159.1020 1149.1428 -1321.0463
v  -265.5980 1143.1757 -1323.2980
v  -238.9800 1148.9805 -1293.1057
v  -221.3280 1117.7216 -1365.6904
v  -163.6130 1148.5348 -1216.3881
v  -193.7100 1148.9215 -1282.9819
v  -160.1540 1149.3926 -1364.0736
v  -184.9530 1148.9847 -1293.8568
v  -204.7590 1142.5289 -1211.9828
v  -267.0310 1137.7203 -1262.1547
v  -242.6130 1116.9268 -1228.8607
v  -267.0310 1142.8203 -1262.1250
v  -120.7660 1106.4537 -1280.0406
v  -124.7960 1106.6708 -1317.3860
v  -119.3430 1117.1006 -1258.8153
v  -197.2270 1149.0057 -1297.4557
v  -197.2270 1639.5475 -1294.6061
v  -198.9790 1639.4821 -1283.3413
v  -160.1540 1143.4127 -1364.1083
v  -126.0960 1137.7177 -1261.6797
v  -149.6550 1137.5477 -1232.4231
v  -189.5610 1639.4661 -1280.5804
v  -149.6550 1116.9481 -1232.5428
v  -130.1990 1116.9971 -1240.9896
v  -251.0600 1106.2699 -1248.3782
v  -251.0600 1117.0397 -1248.3154
v  -264.1750 1117.3531 -1302.2845
v  -264.6190 1106.4735 -1283.4095
v  -187.7150 1148.9301 -1284.4388
v  -184.4560 1639.5146 -1288.9623
v  -264.1750 1137.9528 -1302.1649
v  -181.3170 1138.3046 -1362.7148
v  -120.3230 1117.3336 -1298.9156
v  -146.9590 1117.6168 -1347.6517
v  -194.6130 1620.1117 -1288.5439
v  -190.9760 1620.0873 -1284.3480
v  -193.8310 1148.9580 -1289.2588
v  -190.4480 1620.1145 -1288.9930
v  -190.7820 1639.5018 -1286.7372
v  -193.9650 1620.1322 -1292.0729
v  -191.8340 1148.9916 -1295.0398
v  -190.4480 1148.9725 -1291.7299
v  -196.3330 1148.9592 -1289.4528
v  -194.4930 1639.5051 -1287.3153
v  -184.6860 1137.4690 -1218.8644
v  -218.6640 1117.6815 -1358.8047
v  -224.7870 1137.4633 -1217.8854
# 91 vertices

vn 0.0000 1.0000 0.0058
vn -0.0676 0.9954 -0.0681
vn -0.0465 0.9974 0.0544
vn 0.0854 0.9962 0.0147
vn 0.2618 0.9643 0.0407
vn 0.2256 0.9742 0.0089
vn 0.1697 0.9564 0.2378
vn 0.1321 0.9472 0.2921
vn 0.1466 0.9512 0.2714
vn -0.1006 0.9668 0.2348
vn -0.3808 0.9120 0.1526
vn 0.3646 -0.2685 0.8916
vn 0.3515 -0.0054 0.9362
vn -0.1678 -0.2650 0.9495
vn 0.0639 0.9933 -0.0965
vn 0.5770 0.8151 0.0512
vn 0.1212 0.9902 -0.0689
vn -0.0134 -0.2806 -0.9597
vn 0.3741 -0.3968 -0.8382
vn -0.0686 -0.0815 -0.9943
vn 0.9874 -0.0459 -0.1515
vn 0.8355 -0.2453 -0.4918
vn 0.8936 -0.1534 -0.4218
vn -0.9861 -0.0082 -0.1657
vn -0.9215 -0.0331 0.3870
vn -0.9974 -0.0159 0.0702
vn -0.7509 -0.2622 -0.6062
vn -0.7787 -0.0341 -0.6265
vn 0.9881 -0.0005 0.1537
vn 0.7573 0.0300 0.6524
vn 0.6708 0.0043 -0.7416
vn 0.6986 -0.0629 -0.7127
vn -0.0324 0.9987 0.0399
vn -0.2945 0.8659 0.4043
vn 0.1607 0.9826 -0.0931
vn 0.1144 0.9864 -0.1179
vn 0.1401 0.9846 -0.1042
vn 0.4808 0.8716 0.0952
vn -0.0711 0.9974 -0.0100
vn 0.0859 0.9959 0.0266
vn -0.9192 -0.0866 -0.3841
vn -0.3145 -0.0181 -0.9491
vn -0.3847 0.0054 -0.9230
vn 0.0340 0.9992 0.0200
vn -0.1180 -0.0464 0.9919
vn -0.6829 -0.0042 0.7305
vn -0.9304 -0.0021 0.3665
vn -0.6404 -0.0306 0.7675
vn -0.3929 0.8194 0.4173
vn -0.1099 0.9933 0.0355
vn -0.1093 0.8515 0.5129
vn -0.2138 0.9769 0.0007
vn -0.1829 0.9831 0.0014
vn -0.1577 0.9875 0.0020
vn -0.1499 0.9846 0.0895
vn 0.8378 -0.3600 0.4105
vn -0.0671 0.9977 0.0006
vn 0.0368 0.9993 -0.0004
vn -0.7921 -0.0035 0.6104
vn 0.1392 0.9747 0.1751
vn 0.0055 0.9897 0.1433
vn -0.1619 0.9629 -0.2160
vn -0.4201 0.0077 -0.9074
vn -0.9853 -0.0029 0.1710
vn -0.4784 0.0086 -0.8781
vn -0.2807 -0.0081 0.9598
vn -0.8440 0.0018 0.5363
vn 0.0084 0.9848 -0.1736
vn 0.1010 0.9366 0.3355
vn 0.3613 -0.0020 0.9325
vn 0.8541 -0.0030 0.5201
vn 0.7913 -0.1008 0.6031
vn 0.7362 -0.0039 0.6768
vn 0.0486 -0.4752 0.8786
vn -0.8074 -0.0034 0.5900
vn -0.5517 -0.1090 0.8269
vn -0.8125 0.0434 0.5813
vn -0.9382 -0.2961 -0.1793
vn -0.9581 0.2416 0.1539
vn 0.6901 -0.0061 0.7237
vn 0.8766 0.0039 -0.4812
vn 0.9540 0.0034 -0.2998
vn 0.8906 0.4532 0.0389
vn -0.1956 0.9099 0.3657
vn -0.1149 0.9919 0.0535
vn 0.9826 -0.1261 -0.1367
vn 0.9089 0.2258 -0.3505
vn 0.4042 0.0053 -0.9147
vn 0.6036 -0.1460 -0.7838
vn -0.2289 0.9593 0.1655
vn -0.9849 -0.0040 -0.1733
vn 0.4313 0.8454 -0.3151
vn -0.9276 -0.0293 0.3724
vn -0.5398 -0.8319 -0.1288
vn -0.6349 -0.0564 0.7705
vn 0.6588 0.0077 -0.7523
vn 0.3355 -0.8395 -0.4274
vn -0.4365 0.8414 0.3187
vn -0.3415 -0.8442 0.4132
vn -0.7552 -0.0368 0.6544
vn 0.0556 0.8749 -0.4810
vn 0.0512 0.9069 -0.4182
vn -0.5900 0.0047 -0.8074
vn -0.3385 -0.0517 -0.9395
vn -0.0945 0.0150 -0.9954
vn -0.6699 -0.5510 -0.4976
vn 0.4199 0.9067 0.0381
vn -0.0303 -0.0663 -0.9973
vn 0.3865 0.0805 -0.9188
vn 0.2663 -0.6791 0.6840
vn 0.7530 -0.0038 0.6580
vn 0.5318 0.8423 0.0876
vn 0.0300 0.9144 -0.4036
vn 0.9690 -0.2231 -0.1059
vn 0.9533 -0.2907 0.0819
vn -0.2899 -0.2431 0.9257
vn -0.0000 1.0000 0.0058
vn -0.2642 0.9619 0.0708
vn 0.0848 0.9874 -0.1335
vn -0.2974 0.8176 0.4930
vn 1.0000 0.0000 -0.0000
vn 0.1342 0.9620 0.2378
vn -0.7252 0.6832 -0.0854
vn 0.0000 -1.0000 -0.0058
vn 0.7152 0.5457 -0.4366
vn 0.9762 -0.1292 -0.1742
vn 0.9588 -0.2640 -0.1050
vn 0.7235 0.0040 -0.6903
vn 0.0337 0.6990 -0.7143
vn 0.2486 -0.9083 0.3364
vn 0.9834 -0.0175 0.1805
vn 0.7869 -0.2204 -0.5763
vn 0.9936 -0.0044 0.1129
vn -0.0993 0.9410 -0.3237
vn 0.8068 -0.4732 0.3538
vn -0.7460 0.0039 -0.6659
vn 0.9997 0.0001 -0.0244
vn 0.7716 0.0037 -0.6361
vn -1.0000 0.0000 -0.0000
vn -0.9070 -0.0024 0.4212
vn 0.7712 -0.0037 0.6366
vn -0.9978 -0.0004 0.0664
# 142 vertex normals

vt 0.0463 0.0766 0.0000
vt 0.0708 0.0766 0.0000
vt 0.0411 0.0813 0.0000
vt 0.0436 0.9359 0.0000
vt 0.0660 0.8971 0.0000
vt 0.0536 0.9435 0.0000
vt 0.0403 0.0981 0.0000
vt 0.0600 0.0850 0.0000
vt 0.0483 0.1002 0.0000
vt 0.0776 0.9019 0.0000
vt 0.0852 0.9118 0.0000
vt 0.0660 0.9451 0.0000
vt 0.1005 0.4798 0.0000
vt 0.1079 0.4906 0.0000
vt 0.0929 0.4957 0.0000
vt 0.1298 0.4873 0.0000
vt 0.1145 0.4882 0.0000
vt 0.1111 0.4737 0.0000
vt 0.0536 0.8987 0.0000
vt 0.0587 0.0650 0.0000
vt 0.0657 0.4136 0.0000
vt 0.0695 0.4122 0.0000
vt 0.0701 0.4308 0.0000
vt 0.1308 0.4932 0.0000
vt 0.1464 0.5032 0.0000
vt 0.0572 0.4878 0.0000
vt 0.0659 0.4559 0.0000
vt 0.0596 0.4826 0.0000
vt 0.0610 0.3952 0.0000
vt 0.0734 0.3823 0.0000
vt 0.0682 0.4089 0.0000
vt 0.0929 0.5033 0.0000
vt 0.0775 0.5054 0.0000
vt 0.0879 0.4978 0.0000
vt 0.0722 0.1145 0.0000
vt 0.0594 0.1178 0.0000
vt 0.0646 0.1096 0.0000
vt 0.0861 0.4259 0.0000
vt 0.0948 0.4394 0.0000
vt 0.0737 0.4293 0.0000
vt 0.1020 0.4957 0.0000
vt 0.0760 0.4915 0.0000
vt 0.0701 0.5021 0.0000
vt 0.0799 0.3314 0.0000
vt 0.0840 0.3463 0.0000
vt 0.0755 0.3589 0.0000
vt 0.0877 0.4812 0.0000
vt 0.0774 0.0997 0.0000
vt 0.0610 0.0992 0.0000
vt 0.0808 0.4093 0.0000
vt 0.1301 0.4783 0.0000
vt 0.1069 0.4572 0.0000
vt 0.1175 0.4614 0.0000
vt 0.0712 0.4850 0.0000
vt 0.1026 0.4598 0.0000
vt 0.1469 0.4981 0.0000
vt 0.0428 0.1114 0.0000
vt 0.0571 0.1137 0.0000
vt 0.0465 0.1206 0.0000
vt 0.0793 0.3614 0.0000
vt 0.0577 0.1123 0.0000
vt 0.0388 0.9179 0.0000
vt 0.0436 0.9063 0.0000
vt 0.1087 0.4996 0.0000
vt 0.0740 0.4382 0.0000
vt 0.0656 0.4659 0.0000
vt 0.0286 0.0850 0.0000
vt 0.0281 0.0884 0.0000
vt 0.0333 0.0984 0.0000
vt 0.0762 0.0804 0.0000
vt 0.0791 0.0946 0.0000
vt 0.0481 0.0745 0.0000
vt 0.0432 0.0757 0.0000
vt 0.0926 0.0522 0.0000
vt 0.0981 0.0509 0.0000
vt 0.0930 0.1930 0.0000
vt 0.1018 0.0513 0.0000
vt 0.0957 0.1943 0.0000
vt 0.0741 0.0609 0.0000
vt 0.0750 0.0765 0.0000
vt 0.0841 0.4697 0.0000
vt 0.0793 0.3228 0.0000
vt 0.0792 0.3095 0.0000
vt 0.0813 0.3155 0.0000
vt 0.0983 0.1970 0.0000
vt 0.1240 0.4994 0.0000
vt 0.1018 0.5068 0.0000
vt 0.1235 0.4958 0.0000
vt 0.1166 0.4949 0.0000
vt 0.1384 0.5001 0.0000
vt 0.1660 0.5204 0.0000
vt 0.1519 0.5101 0.0000
vt 0.1664 0.5179 0.0000
vt 0.0776 0.9403 0.0000
vt 0.0527 0.1218 0.0000
vt 0.0707 0.1187 0.0000
vt 0.0673 0.1231 0.0000
vt 0.1054 0.4578 0.0000
vt 0.0821 0.2621 0.0000
vt 0.0690 0.4458 0.0000
vt 0.0770 0.3673 0.0000
vt 0.0728 0.3729 0.0000
vt 0.0929 0.5057 0.0000
vt 0.0848 0.5106 0.0000
vt 0.0539 0.5071 0.0000
vt 0.0691 0.5048 0.0000
vt 0.0684 0.5090 0.0000
vt 0.0812 0.5332 0.0000
vt 0.0834 0.5336 0.0000
vt 0.0824 0.7189 0.0000
vt 0.4281 0.9555 0.0000
vt 0.4175 0.9958 0.0000
vt 0.4002 0.9423 0.0000
vt 0.1126 0.0409 0.0000
vt 0.1141 0.0409 0.0000
vt 0.1141 0.1983 0.0000
vt 0.4154 0.5067 0.0000
vt 0.1068 0.1943 0.0000
vt 0.1068 0.0369 0.0000
vt 0.1087 0.1943 0.0000
vt 0.1491 0.5208 0.0000
vt 0.1491 0.5189 0.0000
vt 0.1555 0.5205 0.0000
vt 0.0852 0.1980 0.0000
vt 0.0839 0.2608 0.0000
vt 0.0809 0.3018 0.0000
vt 0.0772 0.2946 0.0000
vt 0.0791 0.2867 0.0000
vt 0.0933 0.4231 0.0000
vt 0.0840 0.4074 0.0000
vt 0.0888 0.4051 0.0000
vt 0.0799 0.1250 0.0000
vt 0.0801 0.1204 0.0000
vt 0.0942 0.1970 0.0000
vt 0.0836 0.3297 0.0000
vt 0.0628 0.4999 0.0000
vt 0.0698 0.4882 0.0000
vt 0.1194 0.1617 0.0000
vt 0.1218 0.1617 0.0000
vt 0.1199 0.3191 0.0000
vt 0.1213 0.0043 0.0000
vt 0.0721 0.4586 0.0000
vt 0.0765 0.2805 0.0000
vt 0.1543 0.5035 0.0000
vt 0.1611 0.5120 0.0000
vt 0.0771 0.2790 0.0000
vt 0.0366 0.1049 0.0000
vt 0.0985 0.4590 0.0000
vt 0.0837 0.0531 0.0000
vt 0.0819 0.2602 0.0000
vt 0.0755 0.2719 0.0000
vt 0.1634 0.5049 0.0000
vt 0.0614 0.4923 0.0000
vt 0.0786 0.0671 0.0000
vt 0.0541 0.3876 0.0000
vt 0.0584 0.3966 0.0000
vt 0.0831 0.3873 0.0000
vt 0.4108 0.9936 0.0000
vt 0.0810 0.2525 0.0000
vt 0.0834 0.2589 0.0000
vt 0.0911 0.1982 0.0000
vt 0.4168 0.0042 0.0000
vt 0.0804 0.5336 0.0000
vt 0.1056 0.1943 0.0000
vt 0.0736 0.5261 0.0000
vt 0.0847 0.5336 0.0000
vt 0.0911 0.5261 0.0000
vt 0.1157 0.0409 0.0000
vt 0.0536 0.1247 0.0000
vt 0.0852 0.9304 0.0000
vt 0.0726 0.0596 0.0000
# 171 texture coords

s 1
f 30/35/22 31/36/22 32/37/22 
f 33/38/22 34/39/22 35/40/22 
f 36/41/22 37/42/23 38/43/24 
f 39/44/22 40/45/22 41/46/22 
f 42/47/25 43/48/26 44/49/27 
s 16
f 45/50/28 46/51/29 47/52/30 
s 1
f 48/53/22 34/39/22 33/38/22 
f 49/54/22 31/36/22 30/35/22 
f 50/55/31 51/56/32 52/57/22 
f 32/37/22 37/42/23 36/41/22 
s 2
f 53/58/33 45/50/34 54/59/35 
s 1
f 55/60/36 56/61/37 57/62/38 
s 2
f 58/63/39 59/64/40 60/65/41 
f 61/66/42 62/67/43 63/68/44 
f 64/69/45 65/70/46 66/71/47 
f 67/72/48 64/73/45 68/74/49 
f 63/68/44 69/75/50 61/66/42 
f 45/50/34 53/58/33 46/51/51 
f 70/76/52 63/68/44 71/77/53 
s 1
f 72/78/22 63/79/54 73/80/55 
s 16
f 44/49/56 70/76/57 74/81/58 
s 1
f 75/82/59 76/83/60 37/42/23 
f 51/56/32 68/74/61 52/57/22 
s 2
f 66/71/47 75/82/62 64/69/45 
f 77/84/63 60/65/41 59/64/40 
f 51/56/64 67/72/48 68/74/49 
s 1
f 78/85/22 79/86/22 32/87/22 
f 47/52/65 80/88/22 81/89/22 
s 2
f 82/90/66 54/59/35 45/50/34 
f 57/91/67 83/92/68 84/93/69 
s 1
f 63/79/54 70/94/70 73/80/55 
f 58/63/71 60/65/72 50/55/31 
s 16
f 76/83/73 75/82/74 85/95/75 
s 1
f 85/95/76 57/91/38 38/43/24 
f 86/96/22 87/97/22 33/38/22 
s 2
f 88/98/77 61/66/42 69/75/50 
s 1
f 56/61/37 75/99/59 83/100/78 
f 57/62/38 56/61/37 83/100/78 
f 74/81/79 80/88/22 47/52/65 
f 43/48/26 42/47/25 47/52/65 
s 4
f 78/101/80 32/37/80 45/102/80 
s 8
f 45/102/81 32/37/82 82/103/81 
s 1
f 51/104/83 68/105/83 37/42/23 
f 31/36/22 37/42/23 32/37/22 
f 89/106/22 49/54/22 30/35/22 
f 79/107/22 30/35/22 32/37/22 
s 2
f 89/108/84 30/109/85 90/110/86 
f 30/109/85 79/111/87 91/112/88 
s 32
f 92/113/89 60/114/89 49/54/89 
s 1
f 80/88/22 49/115/22 81/89/22 
s 16
f 43/48/90 47/52/30 46/51/29 
s 2
f 69/75/50 46/51/51 88/98/77 
s 1
f 93/116/22 94/117/22 46/118/22 
s 2
f 91/112/88 79/111/87 95/119/91 
f 91/112/88 90/110/86 30/109/85 
f 33/120/92 86/121/92 96/122/93 
f 97/123/94 46/51/51 53/58/33 
f 54/59/35 35/124/95 53/58/33 
f 98/125/96 41/126/97 99/127/98 
s 1
f 41/46/22 40/45/22 98/128/22 
s 2
f 99/129/98 100/130/99 101/131/100 
s 1
f 81/89/22 102/132/22 78/85/22 
s 2
f 102/132/101 81/89/102 103/133/103 
s 1
f 56/61/37 104/134/104 75/99/59 
f 73/80/55 92/135/105 105/136/106 
s 2
f 62/67/43 106/137/107 87/138/108 
f 34/139/109 107/140/110 48/141/109 
f 108/142/111 109/143/112 110/144/113 
f 111/145/114 112/146/115 113/147/116 
f 113/148/117 111/149/117 114/150/118 
f 113/147/116 115/151/119 111/145/114 
f 108/152/111 116/153/120 109/154/112 
s 4
f 108/155/121 109/156/121 117/157/121 
s 2
f 103/158/103 89/108/84 90/110/86 
f 95/159/91 102/132/101 103/133/103 
s 1
f 46/118/22 94/117/22 45/160/22 
f 45/160/122 118/161/123 82/162/122 
s 2
f 40/163/124 119/164/125 39/165/124 
f 59/64/40 39/165/126 119/164/125 
s 1
f 42/47/25 44/49/27 74/81/79 
f 42/47/25 74/81/79 47/52/65 
f 85/95/76 38/43/24 76/83/60 
f 38/43/24 37/42/23 76/83/60 
s 2
f 40/166/127 101/131/100 100/130/99 
f 100/130/99 67/167/48 40/166/127 
s 1
f 103/158/22 90/110/22 117/168/22 
f 90/110/22 91/112/22 117/168/22 
f 69/169/128 63/79/54 72/78/22 
f 69/169/128 93/116/22 46/118/22 
s 2
f 107/140/110 34/139/129 59/170/40 
f 59/170/40 92/171/130 71/77/53 
f 116/172/120 114/173/118 109/174/112 
f 114/173/118 116/172/120 113/175/116 
f 33/120/131 53/58/33 35/124/131 
f 53/58/33 33/120/132 96/122/93 
f 65/70/46 84/93/69 83/92/68 
f 99/127/98 41/126/97 54/59/35 
s 16
f 75/82/74 66/71/22 85/95/75 
s 2
f 83/92/68 66/71/47 65/70/46 
s 1
f 75/99/133 66/176/133 83/100/78 
f 118/161/123 55/177/36 82/162/134 
s 2
f 86/121/135 87/138/135 106/137/107 
f 106/137/107 88/98/77 86/121/136 
f 120/178/137 84/179/69 82/90/66 
s 1
f 82/162/134 55/177/36 120/180/138 
s 8
f 120/181/139 82/103/139 32/37/82 
s 2
f 70/76/52 71/77/53 92/171/130 
s 16
f 92/171/140 74/81/58 70/76/57 
s 1
f 70/94/141 92/135/141 73/80/55 
f 81/89/22 49/115/22 89/182/22 
s 2
f 89/108/84 103/158/103 81/183/102 
s 1
f 95/159/22 103/133/22 112/184/22 
f 91/112/22 95/119/22 117/168/22 
s 32
f 45/50/142 47/52/142 78/85/142 
s 1
f 78/85/22 47/52/65 81/89/22 
f 120/180/138 55/177/36 57/185/38 
f 120/181/143 38/43/24 57/91/143 
s 2
f 57/186/67 84/179/69 120/178/137 
s 1
f 60/65/72 51/56/32 50/55/31 
s 2
f 77/84/63 51/56/64 60/65/41 
s 1
f 60/114/144 51/104/144 37/42/23 
s 2
f 67/72/48 51/56/64 77/84/63 
f 119/164/125 40/163/127 67/72/48 
s 1
f 54/59/145 84/179/145 99/127/145 
s 2
f 54/59/35 82/90/66 84/179/69 
f 70/76/146 44/49/147 63/68/146 
f 44/49/147 69/75/148 63/68/148 
f 97/123/94 88/98/77 46/51/51 
f 88/98/77 96/122/93 86/121/136 
f 107/140/110 62/67/43 48/141/149 
f 62/67/43 71/77/53 63/68/44 
f 35/124/95 54/59/35 41/126/97 
s 1
f 35/40/22 39/44/22 41/46/22 
s 2
f 92/171/130 59/170/40 58/187/39 
f 92/113/130 58/188/150 60/114/150 
s 1
f 92/189/105 58/63/71 105/190/106 
s 2
f 39/165/126 59/64/40 34/191/129 
s 1
f 34/39/22 39/44/22 35/40/22 
s 2
f 117/192/151 113/147/116 112/146/115 
f 112/184/115 109/193/112 117/194/151 
s 1
f 117/168/22 112/195/22 103/158/22 
f 112/184/22 117/194/22 95/159/22 
s 2
f 115/151/119 110/196/113 111/145/114 
f 115/151/119 113/147/116 110/196/113 
f 113/197/116 108/142/111 110/144/113 
f 108/152/111 113/198/116 116/153/120 
f 108/142/152 113/197/152 117/199/151 
s 1
f 87/97/22 48/53/22 33/38/22 
s 2
f 87/138/153 48/141/153 62/67/43 
f 109/143/112 111/200/114 110/144/113 
f 111/200/114 109/143/112 112/201/115 
f 111/149/154 109/202/154 114/150/118 
s 1
f 100/130/145 65/70/145 64/69/145 
f 67/167/145 100/130/145 64/69/145 
f 68/74/61 75/99/59 104/134/104 
s 2
f 75/99/62 68/74/49 64/73/45 
s 1
f 75/82/155 37/42/23 68/105/155 
f 69/75/128 44/49/27 43/48/26 
s 2
f 43/48/156 46/51/156 69/75/156 
s 1
f 62/67/145 107/140/145 71/77/145 
f 71/77/145 107/140/145 59/170/145 
s 2
f 102/132/101 95/159/91 79/86/87 
s 1
f 102/132/22 79/86/22 78/85/22 
f 99/129/145 65/70/145 100/130/145 
f 84/93/145 65/70/145 99/129/145 
s 2
f 101/131/100 98/203/96 99/129/98 
s 1
f 98/128/22 40/45/22 101/204/22 
s 4
f 92/113/157 49/54/157 80/205/157 
s 8
f 80/88/158 74/81/158 92/171/158 
f 31/36/159 49/54/159 60/114/159 
s 4
f 60/114/160 37/42/160 31/36/160 
s 2
f 57/91/96 85/95/161 83/92/96 
f 85/95/161 66/71/47 83/92/68 
s 1
f 97/123/145 53/58/145 96/122/145 
f 88/98/145 97/123/145 96/122/145 
f 88/98/145 106/137/145 61/66/145 
f 106/137/145 62/67/145 61/66/145 
f 77/84/145 119/164/145 67/72/145 
f 59/64/145 119/164/145 77/84/145 
s 16
f 120/181/162 32/37/162 36/41/162 
s 4
f 36/41/163 38/43/163 120/181/163 
s 1
f 105/190/106 58/63/71 50/55/31 
f 94/117/22 118/161/123 45/160/22 
f 72/78/22 93/116/22 69/169/128 
f 52/57/22 68/74/61 104/134/104 
# 0 polygons - 185 triangles

