g pool_round_top

v 9.48092 -10.6847 1.77947e-015
vt 0.446162 0.0223481
vn 2.44475e-008 -5.67487e-008 1
v 13.3929 2.13 9.53674e-007
vt 0.507287 0.222578
v -4.92235 -4.02097 9.53674e-007
vt 0.221111 0.126469
v 4.63461 9.75662 1.43051e-006
vt 0.370438 0.341744
v 1.6728 9.51296 1.43051e-006
vt 0.32416 0.337937
v -3.39931 6.99954 1.43051e-006
vt 0.244908 0.298665
v -5.76691 5.8263 1.43051e-006
vt 0.207915 0.280333
v -4.92235 -4.02097 9.53674e-007
v -4.49892 -4.21687 9.25638e-007
vt 0.227727 0.123408
f 1/1/1 2/2/1 3/3/1 4/4/1 5/5/1 6/6/1 7/7/1 8/3/1 9/8/1 

vt 0.446162 0.0223481
vn -1.63076e-007 -2.46375e-008 1
v 14.2802 -3.74287 9.53674e-007
vt 0.521151 0.130814
vt 0.507287 0.222578
f 1/9/2 10/10/2 2/11/2

vt 0.446162 0.0223481
vn -4.66206e-007 1.84932e-007 1
v 12.698 -7.7315 9.53674e-007
vt 0.496429 0.068492
vt 0.521151 0.130814
f 1/12/3 11/13/3 10/14/3

vt 0.446162 0.0223481
vn -1.44925e-006 1.25581e-006 1
v 11.2841 -9.36319 9.53674e-007
vt 0.474337 0.042997
vt 0.496429 0.068492
f 1/15/4 12/16/4 11/17/4

vt 0.496429 0.068492
vn 0 0 1
v 13.7136 -5.82626 9.53674e-007
vt 0.512298 0.0982614
vt 0.521151 0.130814
f 11/18/5 13/19/5 10/20/5

v 14.3693 -1.58567 9.53674e-007
vt 0.522542 0.164521
vt 0.507287 0.222578
f 10/20/5 14/21/5 2/22/5

v 13.9764 0.537337 9.53674e-007
vt 0.516404 0.197693
f 14/21/5 15/23/5 2/22/5

vt 0.507287 0.222578
vn 1.51533e-008 -4.51208e-008 1
vt 0.370438 0.341744
vt 0.221111 0.126469
f 2/24/6 4/25/6 3/26/6

vt 0.507287 0.222578
vn 1.49649e-007 1.09332e-007 1
v 6.83608 11.1047 9.53674e-007
vt 0.404836 0.362808
vt 0.370438 0.341744
f 2/27/7 16/28/7 4/29/7

vt 0.507287 0.222578
vn -1.59588e-007 -1.16593e-007 1
v 14.6216 4.53799 1.43051e-006
vt 0.526485 0.260203
vt 0.404836 0.362808
f 2/30/8 17/31/8 16/32/8

vt 0.32416 0.337937
vn -1.49832e-007 3.02361e-007 1
v -0.213182 10.1554 9.53674e-007
vt 0.294692 0.347975
vt 0.244908 0.298665
f 5/33/9 18/34/9 6/35/9

v -3.60304 8.80378 1.43051e-006
vt 0.241725 0.326856
vn 1.34605e-007 1.51993e-008 1
vt 0.244908 0.298665
vt 0.294692 0.347975
v -3.73266 9.95164 1.43051e-006
vt 0.2397 0.344791
f 19/36/10 6/37/10 18/38/10 20/39/10 

vt 0.241725 0.326856
v -3.97358 7.50622 1.43051e-006
vt 0.235935 0.306581
vt 0.244908 0.298665
f 19/40/5 21/41/5 6/42/5

v -4.71744 6.50313 1.43051e-006
vt 0.224313 0.290908
f 21/41/5 22/43/5 6/42/5

vt 0.207915 0.280333
f 7/44/5 6/42/5 22/43/5

vt 0.294692 0.347975
vn 1.16211e-007 3.32858e-007 1
v -4.35245 11.6006 9.53674e-007
vt 0.230016 0.370556
vt 0.2397 0.344791
f 18/45/11 23/46/11 20/47/11

vt 0.294692 0.347975
v -1.97179 11.6006 9.53674e-007
vt 0.267213 0.370556
vt 0.230016 0.370556
f 18/48/5 24/49/5 23/50/5

vt 0.230016 0.370556
vn -4.27254e-007 1.28585e-007 1
v -4.45423 11.2624 9.53674e-007
vt 0.228425 0.365272
vt 0.2397 0.344791
f 23/51/12 25/52/12 20/53/12

vt 0.221111 0.126469
vn 1.02766e-008 -4.75419e-008 1
vt 0.207915 0.280333
v -6.98751 5.56246 1.43051e-006
vt 0.188843 0.27621
f 3/54/13 7/55/13 26/56/13

vt 0.221111 0.126469
vn -7.12384e-010 -4.991e-008 1
vt 0.188843 0.27621
v -13.3805 5.65371 1.43051e-006
vt 0.0889523 0.277636
f 3/57/14 26/58/14 27/59/14

vt 0.188843 0.27621
v -8.22284 5.74541 1.43051e-006
vt 0.169541 0.279069
vt 0.0889523 0.277636
f 26/60/5 28/61/5 27/62/5

v -14.8175 7.19612 1.43051e-006
vt 0.0664994 0.301736
f 28/61/5 29/63/5 27/62/5

v -9.31457 6.35171 1.43051e-006
vt 0.152482 0.288542
f 28/61/5 30/64/5 29/63/5

v -10.1228 7.30368 1.43051e-006
vt 0.139854 0.303417
f 30/64/5 31/65/5 29/63/5

vt 0.139854 0.303417
vn 1.40357e-009 -6.12619e-008 1
v -15.2856 14.969 1.90735e-006
vt 0.0591843 0.423187
vt 0.0664994 0.301736
f 31/66/15 32/67/15 29/68/15

vt 0.139854 0.303417
vn 2.72251e-006 1.77149e-006 1
v -11.9056 10.0435 1.43051e-006
vt 0.111997 0.346227
vt 0.0591843 0.423187
f 31/69/16 33/70/16 32/71/16

v -10.5398 8.74063 1.43051e-006
vt 0.133338 0.325869
vt 0.111997 0.346227
f 31/65/5 34/72/5 33/73/5

vt 0.111997 0.346227
vn 1.50645e-006 9.36978e-007 1
v -12.4281 11.3925 9.53674e-007
vt 0.103833 0.367305
vt 0.0591843 0.423187
f 33/74/17 35/75/17 32/76/17

vt 0.103833 0.367305
vn -8.03976e-008 -3.30889e-007 1
v -12.4502 12.839 1.43051e-006
vt 0.103488 0.389906
vt 0.0591843 0.423187
f 35/77/18 36/78/18 32/79/18

vt 0.103488 0.389906
vn 1.32958e-007 -4.68751e-008 1
v -11.9852 14.1579 1.43051e-006
vt 0.110754 0.410515
vt 0.0591843 0.423187
f 36/80/19 37/81/19 32/82/19

vt 0.110754 0.410515
vn -3.89708e-009 -6.03798e-007 1
v -13.775 14.9592 1.90735e-006
vt 0.0827888 0.423035
vt 0.0591843 0.423187
f 37/83/20 38/84/20 32/85/20

vt 0.0591843 0.423187
vn -1.28932e-008 -6.2123e-008 1
v -16.8816 7.62451 1.43051e-006
vt 0.0342481 0.30843
vt 0.0664994 0.301736
f 32/86/21 39/87/21 29/88/21

vt 0.0591843 0.423187
vn -2.37041e-007 -1.34167e-008 1
v -19.0734 10.8092 9.53674e-007
vt 3.53219e-015 0.35819
vt 0.0342481 0.30843
f 32/89/22 40/90/22 39/91/22

vt 0.0591843 0.423187
vn -1.14128e-007 -1.25337e-007 1
v -17.9047 13.5493 1.43051e-006
vt 0.0182622 0.401005
vt 1.70064e-015 0.35819
f 32/92/23 41/93/23 40/94/23

vt 0.0591843 0.423187
vn -5.91221e-007 7.54823e-007 1
v -16.7153 14.4809 1.43051e-006
vt 0.0368454 0.415561
vt 0.0182622 0.401005
f 32/95/24 42/96/24 41/97/24

vt 0.0182622 0.401005
vn -9.32356e-007 2.23665e-007 1
v -18.721 12.2782 9.53674e-007
vt 0.00550643 0.381144
vt 1.38932e-014 0.35819
f 41/98/25 43/99/25 40/100/25

vt 4.97333e-016 0.35819
vn -3.33754e-008 1.26759e-007 1
v -17.7583 7.39368 1.43051e-006
vt 0.0205498 0.304823
vt 0.0342481 0.30843
f 40/101/26 44/102/26 39/103/26

vt -9.29542e-015 0.35819
vn 6.23805e-007 3.79817e-007 1
v -18.9226 9.30599 1.43051e-006
vt 0.00235678 0.334703
vt 0.0205498 0.304823
f 40/104/27 45/105/27 44/106/27

v -6.1461 -3.45046 9.53674e-007
vt 0.20199 0.135383
vn -3.87856e-008 -8.31957e-008 1
vt 0.221111 0.126469
vt 0.0889523 0.277636
f 46/107/28 3/108/28 27/109/28

v -12.9768 -4.2882 9.53674e-007
vt 0.0952604 0.122294
vn -9.60777e-010 -3.42262e-008 1
vt 0.20199 0.135383
vt 0.0889523 0.277636
v -13.0991 3.5645 9.53674e-007
vt 0.0933496 0.244992
f 47/110/29 46/111/29 27/112/29 48/113/29 

vt 0.0952604 0.122294
v -7.8986 -4.62131 9.53674e-007
vt 0.174607 0.117089
vt 0.20199 0.135383
f 47/114/5 49/115/5 46/116/5

v -10.4823 -5.1351 9.53674e-007
vt 0.134236 0.109061
f 47/114/5 50/117/5 49/115/5

v -11.7853 -4.87585 9.53674e-007
vt 0.113877 0.113112
f 47/114/5 51/118/5 50/117/5

v -9.15664 -5.04828 9.53674e-007
vt 0.15495 0.110417
f 50/117/5 52/119/5 49/115/5

vt 0.0933496 0.244992
v -14.0767 1.69683 9.53674e-007
vt 0.078074 0.21581
f 47/114/5 48/120/5 53/121/5

v -15.0782 1.02619 9.53674e-007
vt 0.0624263 0.205331
f 54/122/5 47/114/5 53/121/5

v -14.7136 -2.30753 9.53674e-007
vt 0.0681226 0.153242
f 54/122/5 55/123/5 47/114/5

v -15.1406 -1.04949 9.53674e-007
vt 0.0614512 0.172898
f 54/122/5 56/124/5 55/123/5

v -13.9756 -3.41219 9.53674e-007
vt 0.0796543 0.135981
f 55/123/5 57/125/5 47/114/5

vt 0.221111 0.126469
vn 7.23738e-008 1.33175e-008 1
v -4.46326 -4.71932 9.29749e-007
vt 0.228284 0.115557
vt 0.227727 0.123408
f 3/126/30 58/127/30 9/128/30

vn 7.23738e-008 1.33175e-008 1
v -4.25572 -7.64377 9.53674e-007
vt 0.231527 0.0698629
vt 0.446162 0.0223481
f 58/127/31 59/129/31 1/130/31 9/128/31 

v 5.11038 -12.115 1.77947e-015
vt 0.377872 1.98021e-015
vn 4.1412e-008 -1.26544e-007 1
vt 0.446162 0.0223481
vt 0.231527 0.0698629
f 60/131/32 1/132/32 59/133/32

vt 0.377872 0
v 7.37132 -11.6311 1.77947e-015
vt 0.413199 0.00756102
vt 0.446162 0.0223481
f 60/134/5 61/135/5 1/136/5

v -1.57231 -10.6847 1.77947e-015
vt 0.273455 0.0223481
vn -8.27498e-008 -3.86632e-007 1
vt 0.377872 -1.20895e-014
vt 0.231527 0.0698629
f 62/137/33 60/138/33 59/139/33

vt 0.273455 0.0223481
v 0.537287 -11.6311 1.77947e-015
vt 0.306418 0.00756102
f 62/140/5 63/141/5 60/134/5

v 2.79823 -12.115 1.77947e-015
vt 0.341745 0
f 63/141/5 64/142/5 60/134/5

vt 0.231527 0.0698629
vn -5.59824e-007 -8.07614e-007 1
v -2.87535 -9.78147 1.77947e-015
vt 0.253095 0.0364613
vt 0.273455 0.0223481
f 59/143/34 65/144/34 62/145/34

